<?xml version="1.0" encoding="UTF-8" standalone="no"?>
<!DOCTYPE svg PUBLIC "-//W3C//DTD SVG 1.1//EN"
 "http://www.w3.org/Graphics/SVG/1.1/DTD/svg11.dtd">
<!-- Generated by graphviz version 2.47.0 (20210316.0004)
 -->
<!-- Title: dependencies Pages: 1 -->
<svg width="7505pt" height="284pt"
 viewBox="0.00 0.00 7505.00 284.00" xmlns="http://www.w3.org/2000/svg" xmlns:xlink="http://www.w3.org/1999/xlink">
<g id="graph0" class="graph" transform="scale(1 1) rotate(0) translate(4 280)">
<title>dependencies</title>
<polygon fill="white" stroke="transparent" points="-4,4 -4,-280 7501,-280 7501,4 -4,4"/>
<text text-anchor="start" x="3727.51" y="-42.4" font-family="sans-serif" font-weight="bold" font-size="14.00">Legend</text>
<polygon fill="#ffffb3" stroke="transparent" points="3514.5,-10 3514.5,-30 3534.5,-30 3534.5,-10 3514.5,-10"/>
<text text-anchor="start" x="3538.13" y="-15.4" font-family="sans-serif" font-size="14.00"> &#160;Declarations</text>
<polygon fill="#8dd3c7" stroke="transparent" points="3627.5,-10 3627.5,-30 3647.5,-30 3647.5,-10 3627.5,-10"/>
<text text-anchor="start" x="3651.23" y="-15.4" font-family="sans-serif" font-size="14.00"> &#160;Module</text>
<polygon fill="#80b1d3" stroke="transparent" points="3713.5,-10 3713.5,-30 3733.5,-30 3733.5,-10 3713.5,-10"/>
<text text-anchor="start" x="3737.28" y="-15.4" font-family="sans-serif" font-size="14.00"> &#160;Bootstrap</text>
<polygon fill="#fdb462" stroke="transparent" points="3810.5,-10 3810.5,-30 3830.5,-30 3830.5,-10 3810.5,-10"/>
<text text-anchor="start" x="3834.17" y="-15.4" font-family="sans-serif" font-size="14.00"> &#160;Providers</text>
<polygon fill="#fb8072" stroke="transparent" points="3906.5,-10 3906.5,-30 3926.5,-30 3926.5,-10 3906.5,-10"/>
<text text-anchor="start" x="3930.23" y="-15.4" font-family="sans-serif" font-size="14.00"> &#160;Exports</text>
<g id="clust1" class="cluster">
<title>cluster_AppModule</title>
<polygon fill="none" stroke="black" stroke-dasharray="1,5" points="8,-70 8,-268 7489,-268 7489,-70 8,-70"/>
</g>
<g id="clust2" class="cluster">
<title>cluster_AppModule_declarations</title>
<polygon fill="none" stroke="black" points="5633,-78 5633,-130 7481,-130 7481,-78 5633,-78"/>
</g>
<g id="clust18" class="cluster">
<title>cluster_AppModule_providers</title>
<polygon fill="none" stroke="black" points="3058,-78 3058,-130 5625,-130 5625,-78 3058,-78"/>
</g>
<g id="clust15" class="cluster">
<title>cluster_AppModule_imports</title>
<polygon fill="none" stroke="black" points="16,-78 16,-130 3050,-130 3050,-78 16,-78"/>
</g>
<g id="clust17" class="cluster">
<title>cluster_AppModule_bootstrap</title>
<polygon fill="none" stroke="black" points="2720,-208 2720,-260 2844,-260 2844,-208 2720,-208"/>
</g>
<!-- AppComponent -->
<g id="node1" class="node">
<title>AppComponent</title>
<polygon fill="#ffffb3" stroke="black" points="7472.94,-122 7367.06,-122 7367.06,-86 7472.94,-86 7472.94,-122"/>
<text text-anchor="middle" x="7420" y="-99.8" font-family="Times,serif" font-size="14.00">AppComponent</text>
</g>
<!-- AppModule -->
<g id="node13" class="node">
<title>AppModule</title>
<polygon fill="#8dd3c7" stroke="black" points="2823.66,-187 2820.66,-191 2799.66,-191 2796.66,-187 2740.34,-187 2740.34,-151 2823.66,-151 2823.66,-187"/>
<text text-anchor="middle" x="2782" y="-164.8" font-family="Times,serif" font-size="14.00">AppModule</text>
</g>
<!-- AppComponent&#45;&gt;AppModule -->
<g id="edge1" class="edge">
<title>AppComponent&#45;&gt;AppModule</title>
<path fill="none" stroke="black" d="M7420,-122.38C7420,-146.28 7420,-185 7420,-185 7420,-185 2833.87,-185 2833.87,-185"/>
<polygon fill="black" stroke="black" points="2833.87,-181.5 2823.87,-185 2833.87,-188.5 2833.87,-181.5"/>
</g>
<!-- PredstaveComponent -->
<g id="node2" class="node">
<title>PredstaveComponent</title>
<polygon fill="#ffffb3" stroke="black" points="7348.75,-122 7213.25,-122 7213.25,-86 7348.75,-86 7348.75,-122"/>
<text text-anchor="middle" x="7281" y="-99.8" font-family="Times,serif" font-size="14.00">PredstaveComponent</text>
</g>
<!-- PredstaveComponent&#45;&gt;AppModule -->
<g id="edge2" class="edge">
<title>PredstaveComponent&#45;&gt;AppModule</title>
<path fill="none" stroke="black" d="M7281,-122.32C7281,-145.66 7281,-183 7281,-183 7281,-183 2833.67,-183 2833.67,-183"/>
<polygon fill="black" stroke="black" points="2833.67,-179.5 2823.67,-183 2833.67,-186.5 2833.67,-179.5"/>
</g>
<!-- NavSidebarComponent -->
<g id="node3" class="node">
<title>NavSidebarComponent</title>
<polygon fill="#ffffb3" stroke="black" points="7194.92,-122 7047.08,-122 7047.08,-86 7194.92,-86 7194.92,-122"/>
<text text-anchor="middle" x="7121" y="-99.8" font-family="Times,serif" font-size="14.00">NavSidebarComponent</text>
</g>
<!-- NavSidebarComponent&#45;&gt;AppModule -->
<g id="edge3" class="edge">
<title>NavSidebarComponent&#45;&gt;AppModule</title>
<path fill="none" stroke="black" d="M7121,-122.25C7121,-145.02 7121,-181 7121,-181 7121,-181 2833.9,-181 2833.9,-181"/>
<polygon fill="black" stroke="black" points="2833.9,-177.5 2823.9,-181 2833.9,-184.5 2833.9,-177.5"/>
</g>
<!-- PredstavaFormComponent -->
<g id="node4" class="node">
<title>PredstavaFormComponent</title>
<polygon fill="#ffffb3" stroke="black" points="7029.09,-122 6862.91,-122 6862.91,-86 7029.09,-86 7029.09,-122"/>
<text text-anchor="middle" x="6946" y="-99.8" font-family="Times,serif" font-size="14.00">PredstavaFormComponent</text>
</g>
<!-- PredstavaFormComponent&#45;&gt;AppModule -->
<g id="edge4" class="edge">
<title>PredstavaFormComponent&#45;&gt;AppModule</title>
<path fill="none" stroke="black" d="M6946,-122.16C6946,-144.35 6946,-179 6946,-179 6946,-179 2833.89,-179 2833.89,-179"/>
<polygon fill="black" stroke="black" points="2833.89,-175.5 2823.89,-179 2833.89,-182.5 2833.89,-175.5"/>
</g>
<!-- PredstavaComponent -->
<g id="node5" class="node">
<title>PredstavaComponent</title>
<polygon fill="#ffffb3" stroke="black" points="6844.75,-122 6709.25,-122 6709.25,-86 6844.75,-86 6844.75,-122"/>
<text text-anchor="middle" x="6777" y="-99.8" font-family="Times,serif" font-size="14.00">PredstavaComponent</text>
</g>
<!-- PredstavaComponent&#45;&gt;AppModule -->
<g id="edge5" class="edge">
<title>PredstavaComponent&#45;&gt;AppModule</title>
<path fill="none" stroke="black" d="M6777,-122.04C6777,-143.66 6777,-177 6777,-177 6777,-177 2833.83,-177 2833.83,-177"/>
<polygon fill="black" stroke="black" points="2833.83,-173.5 2823.83,-177 2833.83,-180.5 2833.83,-173.5"/>
</g>
<!-- IsAdminDirective -->
<g id="node6" class="node">
<title>IsAdminDirective</title>
<polygon fill="#ffffb3" stroke="black" points="6691.58,-122 6574.42,-122 6574.42,-86 6691.58,-86 6691.58,-122"/>
<text text-anchor="middle" x="6633" y="-99.8" font-family="Times,serif" font-size="14.00">IsAdminDirective</text>
</g>
<!-- IsAdminDirective&#45;&gt;AppModule -->
<g id="edge6" class="edge">
<title>IsAdminDirective&#45;&gt;AppModule</title>
<path fill="none" stroke="black" d="M6633,-122.28C6633,-143.32 6633,-175 6633,-175 6633,-175 2833.94,-175 2833.94,-175"/>
<polygon fill="black" stroke="black" points="2833.94,-171.5 2823.94,-175 2833.94,-178.5 2833.94,-171.5"/>
</g>
<!-- RegisterComponent -->
<g id="node7" class="node">
<title>RegisterComponent</title>
<polygon fill="#ffffb3" stroke="black" points="6555.98,-122 6428.02,-122 6428.02,-86 6555.98,-86 6555.98,-122"/>
<text text-anchor="middle" x="6492" y="-99.8" font-family="Times,serif" font-size="14.00">RegisterComponent</text>
</g>
<!-- RegisterComponent&#45;&gt;AppModule -->
<g id="edge7" class="edge">
<title>RegisterComponent&#45;&gt;AppModule</title>
<path fill="none" stroke="black" d="M6492,-122.13C6492,-142.57 6492,-173 6492,-173 6492,-173 2833.67,-173 2833.67,-173"/>
<polygon fill="black" stroke="black" points="2833.67,-169.5 2823.67,-173 2833.67,-176.5 2833.67,-169.5"/>
</g>
<!-- LoginComponent -->
<g id="node8" class="node">
<title>LoginComponent</title>
<polygon fill="#ffffb3" stroke="black" points="6410.28,-122 6295.72,-122 6295.72,-86 6410.28,-86 6410.28,-122"/>
<text text-anchor="middle" x="6353" y="-99.8" font-family="Times,serif" font-size="14.00">LoginComponent</text>
</g>
<!-- LoginComponent&#45;&gt;AppModule -->
<g id="edge8" class="edge">
<title>LoginComponent&#45;&gt;AppModule</title>
<path fill="none" stroke="black" d="M6353,-122.31C6353,-142.15 6353,-171 6353,-171 6353,-171 2833.96,-171 2833.96,-171"/>
<polygon fill="black" stroke="black" points="2833.96,-167.5 2823.96,-171 2833.96,-174.5 2833.96,-167.5"/>
</g>
<!-- KorpaComponent -->
<g id="node9" class="node">
<title>KorpaComponent</title>
<polygon fill="#ffffb3" stroke="black" points="6277.31,-122 6160.69,-122 6160.69,-86 6277.31,-86 6277.31,-122"/>
<text text-anchor="middle" x="6219" y="-99.8" font-family="Times,serif" font-size="14.00">KorpaComponent</text>
</g>
<!-- KorpaComponent&#45;&gt;AppModule -->
<g id="edge9" class="edge">
<title>KorpaComponent&#45;&gt;AppModule</title>
<path fill="none" stroke="black" d="M6219,-122.11C6219,-141.34 6219,-169 6219,-169 6219,-169 2833.91,-169 2833.91,-169"/>
<polygon fill="black" stroke="black" points="2833.91,-165.5 2823.91,-169 2833.91,-172.5 2833.91,-165.5"/>
</g>
<!-- PredstavaPageComponent -->
<g id="node10" class="node">
<title>PredstavaPageComponent</title>
<polygon fill="#ffffb3" stroke="black" points="6142.47,-122 5979.53,-122 5979.53,-86 6142.47,-86 6142.47,-122"/>
<text text-anchor="middle" x="6061" y="-99.8" font-family="Times,serif" font-size="14.00">PredstavaPageComponent</text>
</g>
<!-- PredstavaPageComponent&#45;&gt;AppModule -->
<g id="edge10" class="edge">
<title>PredstavaPageComponent&#45;&gt;AppModule</title>
<path fill="none" stroke="black" d="M6061,-122.22C6061,-140.83 6061,-167 6061,-167 6061,-167 2833.76,-167 2833.76,-167"/>
<polygon fill="black" stroke="black" points="2833.76,-163.5 2823.76,-167 2833.76,-170.5 2833.76,-163.5"/>
</g>
<!-- GotovoPlacanjeComponent -->
<g id="node11" class="node">
<title>GotovoPlacanjeComponent</title>
<polygon fill="#ffffb3" stroke="black" points="5961.25,-122 5790.75,-122 5790.75,-86 5961.25,-86 5961.25,-122"/>
<text text-anchor="middle" x="5876" y="-99.8" font-family="Times,serif" font-size="14.00">GotovoPlacanjeComponent</text>
</g>
<!-- GotovoPlacanjeComponent&#45;&gt;AppModule -->
<g id="edge11" class="edge">
<title>GotovoPlacanjeComponent&#45;&gt;AppModule</title>
<path fill="none" stroke="black" d="M5876,-122.3C5876,-140.27 5876,-165 5876,-165 5876,-165 2833.69,-165 2833.69,-165"/>
<polygon fill="black" stroke="black" points="2833.69,-161.5 2823.69,-165 2833.69,-168.5 2833.69,-161.5"/>
</g>
<!-- PretplateComponent -->
<g id="node12" class="node">
<title>PretplateComponent</title>
<polygon fill="#ffffb3" stroke="black" points="5772.59,-122 5641.41,-122 5641.41,-86 5772.59,-86 5772.59,-122"/>
<text text-anchor="middle" x="5707" y="-99.8" font-family="Times,serif" font-size="14.00">PretplateComponent</text>
</g>
<!-- PretplateComponent&#45;&gt;AppModule -->
<g id="edge12" class="edge">
<title>PretplateComponent&#45;&gt;AppModule</title>
<path fill="none" stroke="black" d="M5707,-122.02C5707,-139.37 5707,-163 5707,-163 5707,-163 2833.91,-163 2833.91,-163"/>
<polygon fill="black" stroke="black" points="2833.91,-159.5 2823.91,-163 2833.91,-166.5 2833.91,-159.5"/>
</g>
<!-- AppComponent  -->
<g id="node34" class="node">
<title>AppComponent </title>
<polygon fill="#80b1d3" stroke="black" points="2836.44,-252 2727.56,-252 2727.56,-216 2836.44,-216 2836.44,-252"/>
<text text-anchor="middle" x="2782" y="-229.8" font-family="Times,serif" font-size="14.00">AppComponent </text>
</g>
<!-- AppModule&#45;&gt;AppComponent  -->
<g id="edge33" class="edge">
<title>AppModule&#45;&gt;AppComponent </title>
<path fill="none" stroke="black" stroke-dasharray="1,5" d="M2782,-187.11C2782,-187.11 2782,-205.99 2782,-205.99"/>
<polygon fill="black" stroke="black" points="2778.5,-205.99 2782,-215.99 2785.5,-205.99 2778.5,-205.99"/>
</g>
<!-- BrowserModule -->
<g id="node14" class="node">
<title>BrowserModule</title>
<polygon fill="#8dd3c7" stroke="black" points="3042.47,-122 3039.47,-126 3018.47,-126 3015.47,-122 2935.53,-122 2935.53,-86 3042.47,-86 3042.47,-122"/>
<text text-anchor="middle" x="2989" y="-99.8" font-family="Times,serif" font-size="14.00">BrowserModule</text>
</g>
<!-- BrowserModule&#45;&gt;AppModule -->
<g id="edge13" class="edge">
<title>BrowserModule&#45;&gt;AppModule</title>
<path fill="none" stroke="black" d="M2989,-122.25C2989,-136.18 2989,-153 2989,-153 2989,-153 2833.89,-153 2833.89,-153"/>
<polygon fill="black" stroke="black" points="2833.89,-149.5 2823.89,-153 2833.89,-156.5 2833.89,-149.5"/>
</g>
<!-- AppRoutingModule -->
<g id="node15" class="node">
<title>AppRoutingModule</title>
<polygon fill="#8dd3c7" stroke="black" points="2917.27,-122 2914.27,-126 2893.27,-126 2890.27,-122 2788.73,-122 2788.73,-86 2917.27,-86 2917.27,-122"/>
<text text-anchor="middle" x="2853" y="-99.8" font-family="Times,serif" font-size="14.00">AppRoutingModule</text>
</g>
<!-- AppRoutingModule&#45;&gt;AppModule -->
<g id="edge14" class="edge">
<title>AppRoutingModule&#45;&gt;AppModule</title>
<path fill="none" stroke="black" d="M2806.22,-122.11C2806.22,-122.11 2806.22,-140.99 2806.22,-140.99"/>
<polygon fill="black" stroke="black" points="2802.72,-140.99 2806.22,-150.99 2809.72,-140.99 2802.72,-140.99"/>
</g>
<!-- HttpClientModule -->
<g id="node16" class="node">
<title>HttpClientModule</title>
<polygon fill="#8dd3c7" stroke="black" points="2770.16,-122 2767.16,-126 2746.16,-126 2743.16,-122 2651.84,-122 2651.84,-86 2770.16,-86 2770.16,-122"/>
<text text-anchor="middle" x="2711" y="-99.8" font-family="Times,serif" font-size="14.00">HttpClientModule</text>
</g>
<!-- HttpClientModule&#45;&gt;AppModule -->
<g id="edge15" class="edge">
<title>HttpClientModule&#45;&gt;AppModule</title>
<path fill="none" stroke="black" d="M2755.25,-122.11C2755.25,-122.11 2755.25,-140.99 2755.25,-140.99"/>
<polygon fill="black" stroke="black" points="2751.75,-140.99 2755.25,-150.99 2758.75,-140.99 2751.75,-140.99"/>
</g>
<!-- FormsModule -->
<g id="node17" class="node">
<title>FormsModule</title>
<polygon fill="#8dd3c7" stroke="black" points="2633.83,-122 2630.83,-126 2609.83,-126 2606.83,-122 2538.17,-122 2538.17,-86 2633.83,-86 2633.83,-122"/>
<text text-anchor="middle" x="2586" y="-99.8" font-family="Times,serif" font-size="14.00">FormsModule</text>
</g>
<!-- FormsModule&#45;&gt;AppModule -->
<g id="edge16" class="edge">
<title>FormsModule&#45;&gt;AppModule</title>
<path fill="none" stroke="black" d="M2586,-122.25C2586,-136.18 2586,-153 2586,-153 2586,-153 2729.95,-153 2729.95,-153"/>
<polygon fill="black" stroke="black" points="2729.95,-156.5 2739.95,-153 2729.95,-149.5 2729.95,-156.5"/>
</g>
<!-- ReactiveFormsModule -->
<g id="node18" class="node">
<title>ReactiveFormsModule</title>
<polygon fill="#8dd3c7" stroke="black" points="2520.3,-122 2517.3,-126 2496.3,-126 2493.3,-122 2375.7,-122 2375.7,-86 2520.3,-86 2520.3,-122"/>
<text text-anchor="middle" x="2448" y="-99.8" font-family="Times,serif" font-size="14.00">ReactiveFormsModule</text>
</g>
<!-- ReactiveFormsModule&#45;&gt;AppModule -->
<g id="edge17" class="edge">
<title>ReactiveFormsModule&#45;&gt;AppModule</title>
<path fill="none" stroke="black" d="M2448,-122.12C2448,-136.78 2448,-155 2448,-155 2448,-155 2730.04,-155 2730.04,-155"/>
<polygon fill="black" stroke="black" points="2730.04,-158.5 2740.04,-155 2730.04,-151.5 2730.04,-158.5"/>
</g>
<!-- BrowserAnimationsModule -->
<g id="node19" class="node">
<title>BrowserAnimationsModule</title>
<polygon fill="#8dd3c7" stroke="black" points="2358.3,-122 2355.3,-126 2334.3,-126 2331.3,-122 2185.7,-122 2185.7,-86 2358.3,-86 2358.3,-122"/>
<text text-anchor="middle" x="2272" y="-99.8" font-family="Times,serif" font-size="14.00">BrowserAnimationsModule</text>
</g>
<!-- BrowserAnimationsModule&#45;&gt;AppModule -->
<g id="edge18" class="edge">
<title>BrowserAnimationsModule&#45;&gt;AppModule</title>
<path fill="none" stroke="black" d="M2272,-122.24C2272,-137.57 2272,-157 2272,-157 2272,-157 2730.26,-157 2730.26,-157"/>
<polygon fill="black" stroke="black" points="2730.26,-160.5 2740.26,-157 2730.26,-153.5 2730.26,-160.5"/>
</g>
<!-- MatToolbarModule -->
<g id="node20" class="node">
<title>MatToolbarModule</title>
<polygon fill="#8dd3c7" stroke="black" points="2168.42,-122 2165.42,-126 2144.42,-126 2141.42,-122 2041.58,-122 2041.58,-86 2168.42,-86 2168.42,-122"/>
<text text-anchor="middle" x="2105" y="-99.8" font-family="Times,serif" font-size="14.00">MatToolbarModule</text>
</g>
<!-- MatToolbarModule&#45;&gt;AppModule -->
<g id="edge19" class="edge">
<title>MatToolbarModule&#45;&gt;AppModule</title>
<path fill="none" stroke="black" d="M2105,-122.01C2105,-138.05 2105,-159 2105,-159 2105,-159 2730.16,-159 2730.16,-159"/>
<polygon fill="black" stroke="black" points="2730.16,-162.5 2740.16,-159 2730.16,-155.5 2730.16,-162.5"/>
</g>
<!-- MatInputModule -->
<g id="node21" class="node">
<title>MatInputModule</title>
<polygon fill="#8dd3c7" stroke="black" points="2023.65,-122 2020.65,-126 1999.65,-126 1996.65,-122 1912.35,-122 1912.35,-86 2023.65,-86 2023.65,-122"/>
<text text-anchor="middle" x="1968" y="-99.8" font-family="Times,serif" font-size="14.00">MatInputModule</text>
</g>
<!-- MatInputModule&#45;&gt;AppModule -->
<g id="edge20" class="edge">
<title>MatInputModule&#45;&gt;AppModule</title>
<path fill="none" stroke="black" d="M1968,-122.04C1968,-138.73 1968,-161 1968,-161 1968,-161 2730.23,-161 2730.23,-161"/>
<polygon fill="black" stroke="black" points="2730.23,-164.5 2740.23,-161 2730.23,-157.5 2730.23,-164.5"/>
</g>
<!-- MatFormFieldModule -->
<g id="node22" class="node">
<title>MatFormFieldModule</title>
<polygon fill="#8dd3c7" stroke="black" points="1894.71,-122 1891.71,-126 1870.71,-126 1867.71,-122 1753.29,-122 1753.29,-86 1894.71,-86 1894.71,-122"/>
<text text-anchor="middle" x="1824" y="-99.8" font-family="Times,serif" font-size="14.00">MatFormFieldModule</text>
</g>
<!-- MatFormFieldModule&#45;&gt;AppModule -->
<g id="edge21" class="edge">
<title>MatFormFieldModule&#45;&gt;AppModule</title>
<path fill="none" stroke="black" d="M1824,-122.02C1824,-139.37 1824,-163 1824,-163 1824,-163 2730.22,-163 2730.22,-163"/>
<polygon fill="black" stroke="black" points="2730.22,-166.5 2740.22,-163 2730.22,-159.5 2730.22,-166.5"/>
</g>
<!-- MatSelectModule -->
<g id="node23" class="node">
<title>MatSelectModule</title>
<polygon fill="#8dd3c7" stroke="black" points="1735.31,-122 1732.31,-126 1711.31,-126 1708.31,-122 1618.69,-122 1618.69,-86 1735.31,-86 1735.31,-122"/>
<text text-anchor="middle" x="1677" y="-99.8" font-family="Times,serif" font-size="14.00">MatSelectModule</text>
</g>
<!-- MatSelectModule&#45;&gt;AppModule -->
<g id="edge22" class="edge">
<title>MatSelectModule&#45;&gt;AppModule</title>
<path fill="none" stroke="black" d="M1677,-122.3C1677,-140.27 1677,-165 1677,-165 1677,-165 2730.03,-165 2730.03,-165"/>
<polygon fill="black" stroke="black" points="2730.03,-168.5 2740.03,-165 2730.03,-161.5 2730.03,-168.5"/>
</g>
<!-- MatCardModule -->
<g id="node24" class="node">
<title>MatCardModule</title>
<polygon fill="#8dd3c7" stroke="black" points="1600.81,-122 1597.81,-126 1576.81,-126 1573.81,-122 1491.19,-122 1491.19,-86 1600.81,-86 1600.81,-122"/>
<text text-anchor="middle" x="1546" y="-99.8" font-family="Times,serif" font-size="14.00">MatCardModule</text>
</g>
<!-- MatCardModule&#45;&gt;AppModule -->
<g id="edge23" class="edge">
<title>MatCardModule&#45;&gt;AppModule</title>
<path fill="none" stroke="black" d="M1546,-122.22C1546,-140.83 1546,-167 1546,-167 1546,-167 2730.17,-167 2730.17,-167"/>
<polygon fill="black" stroke="black" points="2730.17,-170.5 2740.17,-167 2730.17,-163.5 2730.17,-170.5"/>
</g>
<!-- MatButtonModule -->
<g id="node25" class="node">
<title>MatButtonModule</title>
<polygon fill="#8dd3c7" stroke="black" points="1473.22,-122 1470.22,-126 1449.22,-126 1446.22,-122 1352.78,-122 1352.78,-86 1473.22,-86 1473.22,-122"/>
<text text-anchor="middle" x="1413" y="-99.8" font-family="Times,serif" font-size="14.00">MatButtonModule</text>
</g>
<!-- MatButtonModule&#45;&gt;AppModule -->
<g id="edge24" class="edge">
<title>MatButtonModule&#45;&gt;AppModule</title>
<path fill="none" stroke="black" d="M1413,-122.11C1413,-141.34 1413,-169 1413,-169 1413,-169 2730.28,-169 2730.28,-169"/>
<polygon fill="black" stroke="black" points="2730.28,-172.5 2740.28,-169 2730.28,-165.5 2730.28,-172.5"/>
</g>
<!-- MatDatepickerModule -->
<g id="node26" class="node">
<title>MatDatepickerModule</title>
<polygon fill="#8dd3c7" stroke="black" points="1334.51,-122 1331.51,-126 1310.51,-126 1307.51,-122 1191.49,-122 1191.49,-86 1334.51,-86 1334.51,-122"/>
<text text-anchor="middle" x="1263" y="-99.8" font-family="Times,serif" font-size="14.00">MatDatepickerModule</text>
</g>
<!-- MatDatepickerModule&#45;&gt;AppModule -->
<g id="edge25" class="edge">
<title>MatDatepickerModule&#45;&gt;AppModule</title>
<path fill="none" stroke="black" d="M1263,-122.31C1263,-142.15 1263,-171 1263,-171 1263,-171 2730.19,-171 2730.19,-171"/>
<polygon fill="black" stroke="black" points="2730.19,-174.5 2740.19,-171 2730.19,-167.5 2730.19,-174.5"/>
</g>
<!-- MatNativeDateModule -->
<g id="node27" class="node">
<title>MatNativeDateModule</title>
<polygon fill="#8dd3c7" stroke="black" points="1172.84,-122 1169.84,-126 1148.84,-126 1145.84,-122 1027.16,-122 1027.16,-86 1172.84,-86 1172.84,-122"/>
<text text-anchor="middle" x="1100" y="-99.8" font-family="Times,serif" font-size="14.00">MatNativeDateModule</text>
</g>
<!-- MatNativeDateModule&#45;&gt;AppModule -->
<g id="edge26" class="edge">
<title>MatNativeDateModule&#45;&gt;AppModule</title>
<path fill="none" stroke="black" d="M1100,-122.13C1100,-142.57 1100,-173 1100,-173 1100,-173 2730,-173 2730,-173"/>
<polygon fill="black" stroke="black" points="2730,-176.5 2740,-173 2730,-169.5 2730,-176.5"/>
</g>
<!-- NgxMaterialTimepickerModule -->
<g id="node28" class="node">
<title>NgxMaterialTimepickerModule</title>
<polygon fill="#8dd3c7" stroke="black" points="1008.61,-122 1005.61,-126 984.61,-126 981.61,-122 813.39,-122 813.39,-86 1008.61,-86 1008.61,-122"/>
<text text-anchor="middle" x="911" y="-99.8" font-family="Times,serif" font-size="14.00">NgxMaterialTimepickerModule</text>
</g>
<!-- NgxMaterialTimepickerModule&#45;&gt;AppModule -->
<g id="edge27" class="edge">
<title>NgxMaterialTimepickerModule&#45;&gt;AppModule</title>
<path fill="none" stroke="black" d="M911,-122.28C911,-143.32 911,-175 911,-175 911,-175 2730.3,-175 2730.3,-175"/>
<polygon fill="black" stroke="black" points="2730.3,-178.5 2740.3,-175 2730.3,-171.5 2730.3,-178.5"/>
</g>
<!-- MatIconModule -->
<g id="node29" class="node">
<title>MatIconModule</title>
<polygon fill="#8dd3c7" stroke="black" points="795.47,-122 792.47,-126 771.47,-126 768.47,-122 688.53,-122 688.53,-86 795.47,-86 795.47,-122"/>
<text text-anchor="middle" x="742" y="-99.8" font-family="Times,serif" font-size="14.00">MatIconModule</text>
</g>
<!-- MatIconModule&#45;&gt;AppModule -->
<g id="edge28" class="edge">
<title>MatIconModule&#45;&gt;AppModule</title>
<path fill="none" stroke="black" d="M742,-122.04C742,-143.66 742,-177 742,-177 742,-177 2730.33,-177 2730.33,-177"/>
<polygon fill="black" stroke="black" points="2730.33,-180.5 2740.33,-177 2730.33,-173.5 2730.33,-180.5"/>
</g>
<!-- MatTableModule -->
<g id="node30" class="node">
<title>MatTableModule</title>
<polygon fill="#8dd3c7" stroke="black" points="670.97,-122 667.97,-126 646.97,-126 643.97,-122 557.03,-122 557.03,-86 670.97,-86 670.97,-122"/>
<text text-anchor="middle" x="614" y="-99.8" font-family="Times,serif" font-size="14.00">MatTableModule</text>
</g>
<!-- MatTableModule&#45;&gt;AppModule -->
<g id="edge29" class="edge">
<title>MatTableModule&#45;&gt;AppModule</title>
<path fill="none" stroke="black" d="M614,-122.16C614,-144.35 614,-179 614,-179 614,-179 2730.15,-179 2730.15,-179"/>
<polygon fill="black" stroke="black" points="2730.15,-182.5 2740.15,-179 2730.15,-175.5 2730.15,-182.5"/>
</g>
<!-- MatBadgeModule -->
<g id="node31" class="node">
<title>MatBadgeModule</title>
<polygon fill="#8dd3c7" stroke="black" points="538.87,-122 535.87,-126 514.87,-126 511.87,-122 421.13,-122 421.13,-86 538.87,-86 538.87,-122"/>
<text text-anchor="middle" x="480" y="-99.8" font-family="Times,serif" font-size="14.00">MatBadgeModule</text>
</g>
<!-- MatBadgeModule&#45;&gt;AppModule -->
<g id="edge30" class="edge">
<title>MatBadgeModule&#45;&gt;AppModule</title>
<path fill="none" stroke="black" d="M480,-122.25C480,-145.02 480,-181 480,-181 480,-181 2730.08,-181 2730.08,-181"/>
<polygon fill="black" stroke="black" points="2730.08,-184.5 2740.08,-181 2730.08,-177.5 2730.08,-184.5"/>
</g>
<!-- MatCheckboxModule -->
<g id="node32" class="node">
<title>MatCheckboxModule</title>
<polygon fill="#8dd3c7" stroke="black" points="403.37,-122 400.37,-126 379.37,-126 376.37,-122 264.63,-122 264.63,-86 403.37,-86 403.37,-122"/>
<text text-anchor="middle" x="334" y="-99.8" font-family="Times,serif" font-size="14.00">MatCheckboxModule</text>
</g>
<!-- MatCheckboxModule&#45;&gt;AppModule -->
<g id="edge31" class="edge">
<title>MatCheckboxModule&#45;&gt;AppModule</title>
<path fill="none" stroke="black" d="M334,-122.32C334,-145.66 334,-183 334,-183 334,-183 2730.28,-183 2730.28,-183"/>
<polygon fill="black" stroke="black" points="2730.28,-186.5 2740.28,-183 2730.28,-179.5 2730.28,-186.5"/>
</g>
<!-- ServiceWorkerModule.register(args) -->
<g id="node33" class="node">
<title>ServiceWorkerModule.register(args)</title>
<polygon fill="#8dd3c7" stroke="black" points="246.4,-122 243.4,-126 222.4,-126 219.4,-122 23.6,-122 23.6,-86 246.4,-86 246.4,-122"/>
<text text-anchor="middle" x="135" y="-99.8" font-family="Times,serif" font-size="14.00">ServiceWorkerModule.register(args)</text>
</g>
<!-- ServiceWorkerModule.register(args)&#45;&gt;AppModule -->
<g id="edge32" class="edge">
<title>ServiceWorkerModule.register(args)&#45;&gt;AppModule</title>
<path fill="none" stroke="black" d="M135,-122.38C135,-146.28 135,-185 135,-185 135,-185 2730.16,-185 2730.16,-185"/>
<polygon fill="black" stroke="black" points="2730.16,-188.5 2740.16,-185 2730.16,-181.5 2730.16,-188.5"/>
</g>
<!-- { provide: DateAdapter, useClass: MomentDateAdapter, deps: [MAT_DATE_LOCALE] } -->
<g id="node35" class="node">
<title>{ provide: DateAdapter, useClass: MomentDateAdapter, deps: [MAT_DATE_LOCALE] }</title>
<ellipse fill="#fdb462" stroke="black" cx="5253" cy="-104" rx="363.64" ry="18"/>
<text text-anchor="middle" x="5253" y="-99.8" font-family="Times,serif" font-size="14.00">{ provide: DateAdapter, useClass: MomentDateAdapter, deps: [MAT_DATE_LOCALE] }</text>
</g>
<!-- { provide: DateAdapter, useClass: MomentDateAdapter, deps: [MAT_DATE_LOCALE] }&#45;&gt;AppModule -->
<g id="edge34" class="edge">
<title>{ provide: DateAdapter, useClass: MomentDateAdapter, deps: [MAT_DATE_LOCALE] }&#45;&gt;AppModule</title>
<path fill="none" stroke="black" d="M5253,-122.04C5253,-138.73 5253,-161 5253,-161 5253,-161 2833.85,-161 2833.85,-161"/>
<polygon fill="black" stroke="black" points="2833.85,-157.5 2823.85,-161 2833.85,-164.5 2833.85,-157.5"/>
</g>
<!-- { provide: MAT_DATE_FORMATS, useValue: MAT_MOMENT_DATE_FORMATS } -->
<g id="node36" class="node">
<title>{ provide: MAT_DATE_FORMATS, useValue: MAT_MOMENT_DATE_FORMATS }</title>
<ellipse fill="#fdb462" stroke="black" cx="4513" cy="-104" rx="358.47" ry="18"/>
<text text-anchor="middle" x="4513" y="-99.8" font-family="Times,serif" font-size="14.00">{ provide: MAT_DATE_FORMATS, useValue: MAT_MOMENT_DATE_FORMATS }</text>
</g>
<!-- { provide: MAT_DATE_FORMATS, useValue: MAT_MOMENT_DATE_FORMATS }&#45;&gt;AppModule -->
<g id="edge35" class="edge">
<title>{ provide: MAT_DATE_FORMATS, useValue: MAT_MOMENT_DATE_FORMATS }&#45;&gt;AppModule</title>
<path fill="none" stroke="black" d="M4513,-122.01C4513,-138.05 4513,-159 4513,-159 4513,-159 2833.93,-159 2833.93,-159"/>
<polygon fill="black" stroke="black" points="2833.93,-155.5 2823.93,-159 2833.93,-162.5 2833.93,-155.5"/>
</g>
<!-- { provide: MAT_DATE_LOCALE, useValue: &#39;sr&#45;sp&#39; } -->
<g id="node37" class="node">
<title>{ provide: MAT_DATE_LOCALE, useValue: &#39;sr&#45;sp&#39; }</title>
<ellipse fill="#fdb462" stroke="black" cx="3911" cy="-104" rx="225.94" ry="18"/>
<text text-anchor="middle" x="3911" y="-99.8" font-family="Times,serif" font-size="14.00">{ provide: MAT_DATE_LOCALE, useValue: &#39;sr&#45;sp&#39; }</text>
</g>
<!-- { provide: MAT_DATE_LOCALE, useValue: &#39;sr&#45;sp&#39; }&#45;&gt;AppModule -->
<g id="edge36" class="edge">
<title>{ provide: MAT_DATE_LOCALE, useValue: &#39;sr&#45;sp&#39; }&#45;&gt;AppModule</title>
<path fill="none" stroke="black" d="M3911,-122.24C3911,-137.57 3911,-157 3911,-157 3911,-157 2833.86,-157 2833.86,-157"/>
<polygon fill="black" stroke="black" points="2833.86,-153.5 2823.86,-157 2833.86,-160.5 2833.86,-153.5"/>
</g>
<!-- { provide: HTTP_INTERCEPTORS, useClass: TokenInterceptor, multi: &#160;} -->
<g id="node38" class="node">
<title>{ provide: HTTP_INTERCEPTORS, useClass: TokenInterceptor, multi: &#160;}</title>
<ellipse fill="#fdb462" stroke="black" cx="3367" cy="-104" rx="300.65" ry="18"/>
<text text-anchor="middle" x="3367" y="-99.8" font-family="Times,serif" font-size="14.00">{ provide: HTTP_INTERCEPTORS, useClass: TokenInterceptor, multi: &#160;}</text>
</g>
<!-- { provide: HTTP_INTERCEPTORS, useClass: TokenInterceptor, multi: &#160;}&#45;&gt;AppModule -->
<g id="edge37" class="edge">
<title>{ provide: HTTP_INTERCEPTORS, useClass: TokenInterceptor, multi: &#160;}&#45;&gt;AppModule</title>
<path fill="none" stroke="black" d="M3367,-122.12C3367,-136.78 3367,-155 3367,-155 3367,-155 2834.07,-155 2834.07,-155"/>
<polygon fill="black" stroke="black" points="2834.07,-151.5 2824.07,-155 2834.07,-158.5 2834.07,-151.5"/>
</g>
</g>
</svg>
