<?xml version="1.0" encoding="UTF-8" standalone="no"?>
<!DOCTYPE svg PUBLIC "-//W3C//DTD SVG 1.1//EN"
 "http://www.w3.org/Graphics/SVG/1.1/DTD/svg11.dtd">
<!-- Generated by graphviz version 2.47.0 (20210316.0004)
 -->
<!-- Title: dependencies Pages: 1 -->
<svg width="7505pt" height="284pt"
 viewBox="0.00 0.00 7505.00 284.00" xmlns="http://www.w3.org/2000/svg" xmlns:xlink="http://www.w3.org/1999/xlink">
<g id="graph0" class="graph" transform="scale(1 1) rotate(0) translate(4 280)">
<title>dependencies</title>
<polygon fill="white" stroke="transparent" points="-4,4 -4,-280 7501,-280 7501,4 -4,4"/>
<text text-anchor="start" x="3727.51" y="-42.4" font-family="sans-serif" font-weight="bold" font-size="14.00">Legend</text>
<polygon fill="#ffffb3" stroke="transparent" points="3514.5,-10 3514.5,-30 3534.5,-30 3534.5,-10 3514.5,-10"/>
<text text-anchor="start" x="3538.13" y="-15.4" font-family="sans-serif" font-size="14.00"> &#160;Declarations</text>
<polygon fill="#8dd3c7" stroke="transparent" points="3627.5,-10 3627.5,-30 3647.5,-30 3647.5,-10 3627.5,-10"/>
<text text-anchor="start" x="3651.23" y="-15.4" font-family="sans-serif" font-size="14.00"> &#160;Module</text>
<polygon fill="#80b1d3" stroke="transparent" points="3713.5,-10 3713.5,-30 3733.5,-30 3733.5,-10 3713.5,-10"/>
<text text-anchor="start" x="3737.28" y="-15.4" font-family="sans-serif" font-size="14.00"> &#160;Bootstrap</text>
<polygon fill="#fdb462" stroke="transparent" points="3810.5,-10 3810.5,-30 3830.5,-30 3830.5,-10 3810.5,-10"/>
<text text-anchor="start" x="3834.17" y="-15.4" font-family="sans-serif" font-size="14.00"> &#160;Providers</text>
<polygon fill="#fb8072" stroke="transparent" points="3906.5,-10 3906.5,-30 3926.5,-30 3926.5,-10 3906.5,-10"/>
<text text-anchor="start" x="3930.23" y="-15.4" font-family="sans-serif" font-size="14.00"> &#160;Exports</text>
<g id="clust1" class="cluster">
<title>cluster_AppModule</title>
<polygon fill="none" stroke="black" stroke-dasharray="1,5" points="8,-70 8,-268 7489,-268 7489,-70 8,-70"/>
</g>
<g id="clust2" class="cluster">
<title>cluster_AppModule_declarations</title>
<polygon fill="none" stroke="black" points="5633,-78 5633,-130 7481,-130 7481,-78 5633,-78"/>
</g>
<g id="clust15" class="cluster">
<title>cluster_AppModule_imports</title>
<polygon fill="none" stroke="black" points="2591,-78 2591,-130 5625,-130 5625,-78 2591,-78"/>
</g>
<g id="clust17" class="cluster">
<title>cluster_AppModule_bootstrap</title>
<polygon fill="none" stroke="black" points="4701,-208 4701,-260 4825,-260 4825,-208 4701,-208"/>
</g>
<g id="clust18" class="cluster">
<title>cluster_AppModule_providers</title>
<polygon fill="none" stroke="black" points="16,-78 16,-130 2583,-130 2583,-78 16,-78"/>
</g>
<!-- AppComponent -->
<g id="node1" class="node">
<title>AppComponent</title>
<polygon fill="#ffffb3" stroke="black" points="7472.94,-122 7367.06,-122 7367.06,-86 7472.94,-86 7472.94,-122"/>
<text text-anchor="middle" x="7420" y="-99.8" font-family="Times,serif" font-size="14.00">AppComponent</text>
</g>
<!-- AppModule -->
<g id="node13" class="node">
<title>AppModule</title>
<polygon fill="#8dd3c7" stroke="black" points="4804.66,-187 4801.66,-191 4780.66,-191 4777.66,-187 4721.34,-187 4721.34,-151 4804.66,-151 4804.66,-187"/>
<text text-anchor="middle" x="4763" y="-164.8" font-family="Times,serif" font-size="14.00">AppModule</text>
</g>
<!-- AppComponent&#45;&gt;AppModule -->
<g id="edge1" class="edge">
<title>AppComponent&#45;&gt;AppModule</title>
<path fill="none" stroke="black" d="M7420,-122.38C7420,-146.28 7420,-185 7420,-185 7420,-185 4814.74,-185 4814.74,-185"/>
<polygon fill="black" stroke="black" points="4814.74,-181.5 4804.74,-185 4814.74,-188.5 4814.74,-181.5"/>
</g>
<!-- PredstaveComponent -->
<g id="node2" class="node">
<title>PredstaveComponent</title>
<polygon fill="#ffffb3" stroke="black" points="7348.75,-122 7213.25,-122 7213.25,-86 7348.75,-86 7348.75,-122"/>
<text text-anchor="middle" x="7281" y="-99.8" font-family="Times,serif" font-size="14.00">PredstaveComponent</text>
</g>
<!-- PredstaveComponent&#45;&gt;AppModule -->
<g id="edge2" class="edge">
<title>PredstaveComponent&#45;&gt;AppModule</title>
<path fill="none" stroke="black" d="M7281,-122.32C7281,-145.66 7281,-183 7281,-183 7281,-183 4814.86,-183 4814.86,-183"/>
<polygon fill="black" stroke="black" points="4814.86,-179.5 4804.86,-183 4814.86,-186.5 4814.86,-179.5"/>
</g>
<!-- NavSidebarComponent -->
<g id="node3" class="node">
<title>NavSidebarComponent</title>
<polygon fill="#ffffb3" stroke="black" points="7194.92,-122 7047.08,-122 7047.08,-86 7194.92,-86 7194.92,-122"/>
<text text-anchor="middle" x="7121" y="-99.8" font-family="Times,serif" font-size="14.00">NavSidebarComponent</text>
</g>
<!-- NavSidebarComponent&#45;&gt;AppModule -->
<g id="edge3" class="edge">
<title>NavSidebarComponent&#45;&gt;AppModule</title>
<path fill="none" stroke="black" d="M7121,-122.25C7121,-145.02 7121,-181 7121,-181 7121,-181 4814.68,-181 4814.68,-181"/>
<polygon fill="black" stroke="black" points="4814.68,-177.5 4804.68,-181 4814.68,-184.5 4814.68,-177.5"/>
</g>
<!-- PredstavaFormComponent -->
<g id="node4" class="node">
<title>PredstavaFormComponent</title>
<polygon fill="#ffffb3" stroke="black" points="7029.09,-122 6862.91,-122 6862.91,-86 7029.09,-86 7029.09,-122"/>
<text text-anchor="middle" x="6946" y="-99.8" font-family="Times,serif" font-size="14.00">PredstavaFormComponent</text>
</g>
<!-- PredstavaFormComponent&#45;&gt;AppModule -->
<g id="edge4" class="edge">
<title>PredstavaFormComponent&#45;&gt;AppModule</title>
<path fill="none" stroke="black" d="M6946,-122.16C6946,-144.35 6946,-179 6946,-179 6946,-179 4814.66,-179 4814.66,-179"/>
<polygon fill="black" stroke="black" points="4814.66,-175.5 4804.66,-179 4814.66,-182.5 4814.66,-175.5"/>
</g>
<!-- PredstavaComponent -->
<g id="node5" class="node">
<title>PredstavaComponent</title>
<polygon fill="#ffffb3" stroke="black" points="6844.75,-122 6709.25,-122 6709.25,-86 6844.75,-86 6844.75,-122"/>
<text text-anchor="middle" x="6777" y="-99.8" font-family="Times,serif" font-size="14.00">PredstavaComponent</text>
</g>
<!-- PredstavaComponent&#45;&gt;AppModule -->
<g id="edge5" class="edge">
<title>PredstavaComponent&#45;&gt;AppModule</title>
<path fill="none" stroke="black" d="M6777,-122.04C6777,-143.66 6777,-177 6777,-177 6777,-177 4815.07,-177 4815.07,-177"/>
<polygon fill="black" stroke="black" points="4815.07,-173.5 4805.07,-177 4815.07,-180.5 4815.07,-173.5"/>
</g>
<!-- IsAdminDirective -->
<g id="node6" class="node">
<title>IsAdminDirective</title>
<polygon fill="#ffffb3" stroke="black" points="6691.58,-122 6574.42,-122 6574.42,-86 6691.58,-86 6691.58,-122"/>
<text text-anchor="middle" x="6633" y="-99.8" font-family="Times,serif" font-size="14.00">IsAdminDirective</text>
</g>
<!-- IsAdminDirective&#45;&gt;AppModule -->
<g id="edge6" class="edge">
<title>IsAdminDirective&#45;&gt;AppModule</title>
<path fill="none" stroke="black" d="M6633,-122.28C6633,-143.32 6633,-175 6633,-175 6633,-175 4814.68,-175 4814.68,-175"/>
<polygon fill="black" stroke="black" points="4814.68,-171.5 4804.68,-175 4814.68,-178.5 4814.68,-171.5"/>
</g>
<!-- RegisterComponent -->
<g id="node7" class="node">
<title>RegisterComponent</title>
<polygon fill="#ffffb3" stroke="black" points="6555.98,-122 6428.02,-122 6428.02,-86 6555.98,-86 6555.98,-122"/>
<text text-anchor="middle" x="6492" y="-99.8" font-family="Times,serif" font-size="14.00">RegisterComponent</text>
</g>
<!-- RegisterComponent&#45;&gt;AppModule -->
<g id="edge7" class="edge">
<title>RegisterComponent&#45;&gt;AppModule</title>
<path fill="none" stroke="black" d="M6492,-122.13C6492,-142.57 6492,-173 6492,-173 6492,-173 4814.88,-173 4814.88,-173"/>
<polygon fill="black" stroke="black" points="4814.88,-169.5 4804.88,-173 4814.88,-176.5 4814.88,-169.5"/>
</g>
<!-- LoginComponent -->
<g id="node8" class="node">
<title>LoginComponent</title>
<polygon fill="#ffffb3" stroke="black" points="6410.28,-122 6295.72,-122 6295.72,-86 6410.28,-86 6410.28,-122"/>
<text text-anchor="middle" x="6353" y="-99.8" font-family="Times,serif" font-size="14.00">LoginComponent</text>
</g>
<!-- LoginComponent&#45;&gt;AppModule -->
<g id="edge8" class="edge">
<title>LoginComponent&#45;&gt;AppModule</title>
<path fill="none" stroke="black" d="M6353,-122.31C6353,-142.15 6353,-171 6353,-171 6353,-171 4814.71,-171 4814.71,-171"/>
<polygon fill="black" stroke="black" points="4814.71,-167.5 4804.71,-171 4814.71,-174.5 4814.71,-167.5"/>
</g>
<!-- KorpaComponent -->
<g id="node9" class="node">
<title>KorpaComponent</title>
<polygon fill="#ffffb3" stroke="black" points="6277.31,-122 6160.69,-122 6160.69,-86 6277.31,-86 6277.31,-122"/>
<text text-anchor="middle" x="6219" y="-99.8" font-family="Times,serif" font-size="14.00">KorpaComponent</text>
</g>
<!-- KorpaComponent&#45;&gt;AppModule -->
<g id="edge9" class="edge">
<title>KorpaComponent&#45;&gt;AppModule</title>
<path fill="none" stroke="black" d="M6219,-122.11C6219,-141.34 6219,-169 6219,-169 6219,-169 4815.01,-169 4815.01,-169"/>
<polygon fill="black" stroke="black" points="4815.01,-165.5 4805.01,-169 4815,-172.5 4815.01,-165.5"/>
</g>
<!-- PredstavaPageComponent -->
<g id="node10" class="node">
<title>PredstavaPageComponent</title>
<polygon fill="#ffffb3" stroke="black" points="6142.47,-122 5979.53,-122 5979.53,-86 6142.47,-86 6142.47,-122"/>
<text text-anchor="middle" x="6061" y="-99.8" font-family="Times,serif" font-size="14.00">PredstavaPageComponent</text>
</g>
<!-- PredstavaPageComponent&#45;&gt;AppModule -->
<g id="edge10" class="edge">
<title>PredstavaPageComponent&#45;&gt;AppModule</title>
<path fill="none" stroke="black" d="M6061,-122.22C6061,-140.83 6061,-167 6061,-167 6061,-167 4814.72,-167 4814.72,-167"/>
<polygon fill="black" stroke="black" points="4814.72,-163.5 4804.72,-167 4814.72,-170.5 4814.72,-163.5"/>
</g>
<!-- GotovoPlacanjeComponent -->
<g id="node11" class="node">
<title>GotovoPlacanjeComponent</title>
<polygon fill="#ffffb3" stroke="black" points="5961.25,-122 5790.75,-122 5790.75,-86 5961.25,-86 5961.25,-122"/>
<text text-anchor="middle" x="5876" y="-99.8" font-family="Times,serif" font-size="14.00">GotovoPlacanjeComponent</text>
</g>
<!-- GotovoPlacanjeComponent&#45;&gt;AppModule -->
<g id="edge11" class="edge">
<title>GotovoPlacanjeComponent&#45;&gt;AppModule</title>
<path fill="none" stroke="black" d="M5876,-122.3C5876,-140.27 5876,-165 5876,-165 5876,-165 4814.94,-165 4814.94,-165"/>
<polygon fill="black" stroke="black" points="4814.94,-161.5 4804.94,-165 4814.94,-168.5 4814.94,-161.5"/>
</g>
<!-- PretplateComponent -->
<g id="node12" class="node">
<title>PretplateComponent</title>
<polygon fill="#ffffb3" stroke="black" points="5772.59,-122 5641.41,-122 5641.41,-86 5772.59,-86 5772.59,-122"/>
<text text-anchor="middle" x="5707" y="-99.8" font-family="Times,serif" font-size="14.00">PretplateComponent</text>
</g>
<!-- PretplateComponent&#45;&gt;AppModule -->
<g id="edge12" class="edge">
<title>PretplateComponent&#45;&gt;AppModule</title>
<path fill="none" stroke="black" d="M5707,-122.02C5707,-139.37 5707,-163 5707,-163 5707,-163 4814.78,-163 4814.78,-163"/>
<polygon fill="black" stroke="black" points="4814.78,-159.5 4804.78,-163 4814.78,-166.5 4814.78,-159.5"/>
</g>
<!-- AppComponent  -->
<g id="node34" class="node">
<title>AppComponent </title>
<polygon fill="#80b1d3" stroke="black" points="4817.44,-252 4708.56,-252 4708.56,-216 4817.44,-216 4817.44,-252"/>
<text text-anchor="middle" x="4763" y="-229.8" font-family="Times,serif" font-size="14.00">AppComponent </text>
</g>
<!-- AppModule&#45;&gt;AppComponent  -->
<g id="edge33" class="edge">
<title>AppModule&#45;&gt;AppComponent </title>
<path fill="none" stroke="black" stroke-dasharray="1,5" d="M4763,-187.11C4763,-187.11 4763,-205.99 4763,-205.99"/>
<polygon fill="black" stroke="black" points="4759.5,-205.99 4763,-215.99 4766.5,-205.99 4759.5,-205.99"/>
</g>
<!-- BrowserModule -->
<g id="node14" class="node">
<title>BrowserModule</title>
<polygon fill="#8dd3c7" stroke="black" points="5617.47,-122 5614.47,-126 5593.47,-126 5590.47,-122 5510.53,-122 5510.53,-86 5617.47,-86 5617.47,-122"/>
<text text-anchor="middle" x="5564" y="-99.8" font-family="Times,serif" font-size="14.00">BrowserModule</text>
</g>
<!-- BrowserModule&#45;&gt;AppModule -->
<g id="edge13" class="edge">
<title>BrowserModule&#45;&gt;AppModule</title>
<path fill="none" stroke="black" d="M5564,-122.04C5564,-138.73 5564,-161 5564,-161 5564,-161 4814.66,-161 4814.66,-161"/>
<polygon fill="black" stroke="black" points="4814.66,-157.5 4804.66,-161 4814.66,-164.5 4814.66,-157.5"/>
</g>
<!-- AppRoutingModule -->
<g id="node15" class="node">
<title>AppRoutingModule</title>
<polygon fill="#8dd3c7" stroke="black" points="5492.27,-122 5489.27,-126 5468.27,-126 5465.27,-122 5363.73,-122 5363.73,-86 5492.27,-86 5492.27,-122"/>
<text text-anchor="middle" x="5428" y="-99.8" font-family="Times,serif" font-size="14.00">AppRoutingModule</text>
</g>
<!-- AppRoutingModule&#45;&gt;AppModule -->
<g id="edge14" class="edge">
<title>AppRoutingModule&#45;&gt;AppModule</title>
<path fill="none" stroke="black" d="M5428,-122.01C5428,-138.05 5428,-159 5428,-159 5428,-159 4814.85,-159 4814.85,-159"/>
<polygon fill="black" stroke="black" points="4814.85,-155.5 4804.85,-159 4814.85,-162.5 4814.85,-155.5"/>
</g>
<!-- HttpClientModule -->
<g id="node16" class="node">
<title>HttpClientModule</title>
<polygon fill="#8dd3c7" stroke="black" points="5345.16,-122 5342.16,-126 5321.16,-126 5318.16,-122 5226.84,-122 5226.84,-86 5345.16,-86 5345.16,-122"/>
<text text-anchor="middle" x="5286" y="-99.8" font-family="Times,serif" font-size="14.00">HttpClientModule</text>
</g>
<!-- HttpClientModule&#45;&gt;AppModule -->
<g id="edge15" class="edge">
<title>HttpClientModule&#45;&gt;AppModule</title>
<path fill="none" stroke="black" d="M5286,-122.24C5286,-137.57 5286,-157 5286,-157 5286,-157 4814.92,-157 4814.92,-157"/>
<polygon fill="black" stroke="black" points="4814.92,-153.5 4804.92,-157 4814.92,-160.5 4814.92,-153.5"/>
</g>
<!-- FormsModule -->
<g id="node17" class="node">
<title>FormsModule</title>
<polygon fill="#8dd3c7" stroke="black" points="5208.83,-122 5205.83,-126 5184.83,-126 5181.83,-122 5113.17,-122 5113.17,-86 5208.83,-86 5208.83,-122"/>
<text text-anchor="middle" x="5161" y="-99.8" font-family="Times,serif" font-size="14.00">FormsModule</text>
</g>
<!-- FormsModule&#45;&gt;AppModule -->
<g id="edge16" class="edge">
<title>FormsModule&#45;&gt;AppModule</title>
<path fill="none" stroke="black" d="M5161,-122.12C5161,-136.78 5161,-155 5161,-155 5161,-155 4814.84,-155 4814.84,-155"/>
<polygon fill="black" stroke="black" points="4814.84,-151.5 4804.84,-155 4814.84,-158.5 4814.84,-151.5"/>
</g>
<!-- ReactiveFormsModule -->
<g id="node18" class="node">
<title>ReactiveFormsModule</title>
<polygon fill="#8dd3c7" stroke="black" points="5095.3,-122 5092.3,-126 5071.3,-126 5068.3,-122 4950.7,-122 4950.7,-86 5095.3,-86 5095.3,-122"/>
<text text-anchor="middle" x="5023" y="-99.8" font-family="Times,serif" font-size="14.00">ReactiveFormsModule</text>
</g>
<!-- ReactiveFormsModule&#45;&gt;AppModule -->
<g id="edge17" class="edge">
<title>ReactiveFormsModule&#45;&gt;AppModule</title>
<path fill="none" stroke="black" d="M5023,-122.25C5023,-136.18 5023,-153 5023,-153 5023,-153 4814.77,-153 4814.77,-153"/>
<polygon fill="black" stroke="black" points="4814.77,-149.5 4804.77,-153 4814.77,-156.5 4814.77,-149.5"/>
</g>
<!-- BrowserAnimationsModule -->
<g id="node19" class="node">
<title>BrowserAnimationsModule</title>
<polygon fill="#8dd3c7" stroke="black" points="4933.3,-122 4930.3,-126 4909.3,-126 4906.3,-122 4760.7,-122 4760.7,-86 4933.3,-86 4933.3,-122"/>
<text text-anchor="middle" x="4847" y="-99.8" font-family="Times,serif" font-size="14.00">BrowserAnimationsModule</text>
</g>
<!-- BrowserAnimationsModule&#45;&gt;AppModule -->
<g id="edge18" class="edge">
<title>BrowserAnimationsModule&#45;&gt;AppModule</title>
<path fill="none" stroke="black" d="M4782.84,-122.11C4782.84,-122.11 4782.84,-140.99 4782.84,-140.99"/>
<polygon fill="black" stroke="black" points="4779.34,-140.99 4782.84,-150.99 4786.34,-140.99 4779.34,-140.99"/>
</g>
<!-- MatToolbarModule -->
<g id="node20" class="node">
<title>MatToolbarModule</title>
<polygon fill="#8dd3c7" stroke="black" points="4743.42,-122 4740.42,-126 4719.42,-126 4716.42,-122 4616.58,-122 4616.58,-86 4743.42,-86 4743.42,-122"/>
<text text-anchor="middle" x="4680" y="-99.8" font-family="Times,serif" font-size="14.00">MatToolbarModule</text>
</g>
<!-- MatToolbarModule&#45;&gt;AppModule -->
<g id="edge19" class="edge">
<title>MatToolbarModule&#45;&gt;AppModule</title>
<path fill="none" stroke="black" d="M4732.19,-122.11C4732.19,-122.11 4732.19,-140.99 4732.19,-140.99"/>
<polygon fill="black" stroke="black" points="4728.69,-140.99 4732.19,-150.99 4735.69,-140.99 4728.69,-140.99"/>
</g>
<!-- MatInputModule -->
<g id="node21" class="node">
<title>MatInputModule</title>
<polygon fill="#8dd3c7" stroke="black" points="4598.65,-122 4595.65,-126 4574.65,-126 4571.65,-122 4487.35,-122 4487.35,-86 4598.65,-86 4598.65,-122"/>
<text text-anchor="middle" x="4543" y="-99.8" font-family="Times,serif" font-size="14.00">MatInputModule</text>
</g>
<!-- MatInputModule&#45;&gt;AppModule -->
<g id="edge20" class="edge">
<title>MatInputModule&#45;&gt;AppModule</title>
<path fill="none" stroke="black" d="M4543,-122.25C4543,-136.18 4543,-153 4543,-153 4543,-153 4711.1,-153 4711.1,-153"/>
<polygon fill="black" stroke="black" points="4711.1,-156.5 4721.1,-153 4711.1,-149.5 4711.1,-156.5"/>
</g>
<!-- MatFormFieldModule -->
<g id="node22" class="node">
<title>MatFormFieldModule</title>
<polygon fill="#8dd3c7" stroke="black" points="4469.71,-122 4466.71,-126 4445.71,-126 4442.71,-122 4328.29,-122 4328.29,-86 4469.71,-86 4469.71,-122"/>
<text text-anchor="middle" x="4399" y="-99.8" font-family="Times,serif" font-size="14.00">MatFormFieldModule</text>
</g>
<!-- MatFormFieldModule&#45;&gt;AppModule -->
<g id="edge21" class="edge">
<title>MatFormFieldModule&#45;&gt;AppModule</title>
<path fill="none" stroke="black" d="M4399,-122.12C4399,-136.78 4399,-155 4399,-155 4399,-155 4711.24,-155 4711.24,-155"/>
<polygon fill="black" stroke="black" points="4711.24,-158.5 4721.24,-155 4711.24,-151.5 4711.24,-158.5"/>
</g>
<!-- MatSelectModule -->
<g id="node23" class="node">
<title>MatSelectModule</title>
<polygon fill="#8dd3c7" stroke="black" points="4310.31,-122 4307.31,-126 4286.31,-126 4283.31,-122 4193.69,-122 4193.69,-86 4310.31,-86 4310.31,-122"/>
<text text-anchor="middle" x="4252" y="-99.8" font-family="Times,serif" font-size="14.00">MatSelectModule</text>
</g>
<!-- MatSelectModule&#45;&gt;AppModule -->
<g id="edge22" class="edge">
<title>MatSelectModule&#45;&gt;AppModule</title>
<path fill="none" stroke="black" d="M4252,-122.24C4252,-137.57 4252,-157 4252,-157 4252,-157 4711.18,-157 4711.18,-157"/>
<polygon fill="black" stroke="black" points="4711.18,-160.5 4721.18,-157 4711.18,-153.5 4711.18,-160.5"/>
</g>
<!-- MatCardModule -->
<g id="node24" class="node">
<title>MatCardModule</title>
<polygon fill="#8dd3c7" stroke="black" points="4175.81,-122 4172.81,-126 4151.81,-126 4148.81,-122 4066.19,-122 4066.19,-86 4175.81,-86 4175.81,-122"/>
<text text-anchor="middle" x="4121" y="-99.8" font-family="Times,serif" font-size="14.00">MatCardModule</text>
</g>
<!-- MatCardModule&#45;&gt;AppModule -->
<g id="edge23" class="edge">
<title>MatCardModule&#45;&gt;AppModule</title>
<path fill="none" stroke="black" d="M4121,-122.01C4121,-138.05 4121,-159 4121,-159 4121,-159 4710.88,-159 4710.88,-159"/>
<polygon fill="black" stroke="black" points="4710.88,-162.5 4720.88,-159 4710.88,-155.5 4710.88,-162.5"/>
</g>
<!-- MatButtonModule -->
<g id="node25" class="node">
<title>MatButtonModule</title>
<polygon fill="#8dd3c7" stroke="black" points="4048.22,-122 4045.22,-126 4024.22,-126 4021.22,-122 3927.78,-122 3927.78,-86 4048.22,-86 4048.22,-122"/>
<text text-anchor="middle" x="3988" y="-99.8" font-family="Times,serif" font-size="14.00">MatButtonModule</text>
</g>
<!-- MatButtonModule&#45;&gt;AppModule -->
<g id="edge24" class="edge">
<title>MatButtonModule&#45;&gt;AppModule</title>
<path fill="none" stroke="black" d="M3988,-122.04C3988,-138.73 3988,-161 3988,-161 3988,-161 4711.33,-161 4711.33,-161"/>
<polygon fill="black" stroke="black" points="4711.33,-164.5 4721.33,-161 4711.33,-157.5 4711.33,-164.5"/>
</g>
<!-- MatDatepickerModule -->
<g id="node26" class="node">
<title>MatDatepickerModule</title>
<polygon fill="#8dd3c7" stroke="black" points="3909.51,-122 3906.51,-126 3885.51,-126 3882.51,-122 3766.49,-122 3766.49,-86 3909.51,-86 3909.51,-122"/>
<text text-anchor="middle" x="3838" y="-99.8" font-family="Times,serif" font-size="14.00">MatDatepickerModule</text>
</g>
<!-- MatDatepickerModule&#45;&gt;AppModule -->
<g id="edge25" class="edge">
<title>MatDatepickerModule&#45;&gt;AppModule</title>
<path fill="none" stroke="black" d="M3838,-122.02C3838,-139.37 3838,-163 3838,-163 3838,-163 4711.15,-163 4711.15,-163"/>
<polygon fill="black" stroke="black" points="4711.15,-166.5 4721.15,-163 4711.15,-159.5 4711.15,-166.5"/>
</g>
<!-- MatNativeDateModule -->
<g id="node27" class="node">
<title>MatNativeDateModule</title>
<polygon fill="#8dd3c7" stroke="black" points="3747.84,-122 3744.84,-126 3723.84,-126 3720.84,-122 3602.16,-122 3602.16,-86 3747.84,-86 3747.84,-122"/>
<text text-anchor="middle" x="3675" y="-99.8" font-family="Times,serif" font-size="14.00">MatNativeDateModule</text>
</g>
<!-- MatNativeDateModule&#45;&gt;AppModule -->
<g id="edge26" class="edge">
<title>MatNativeDateModule&#45;&gt;AppModule</title>
<path fill="none" stroke="black" d="M3675,-122.3C3675,-140.27 3675,-165 3675,-165 3675,-165 4711.02,-165 4711.02,-165"/>
<polygon fill="black" stroke="black" points="4711.02,-168.5 4721.02,-165 4711.02,-161.5 4711.02,-168.5"/>
</g>
<!-- NgxMaterialTimepickerModule -->
<g id="node28" class="node">
<title>NgxMaterialTimepickerModule</title>
<polygon fill="#8dd3c7" stroke="black" points="3583.61,-122 3580.61,-126 3559.61,-126 3556.61,-122 3388.39,-122 3388.39,-86 3583.61,-86 3583.61,-122"/>
<text text-anchor="middle" x="3486" y="-99.8" font-family="Times,serif" font-size="14.00">NgxMaterialTimepickerModule</text>
</g>
<!-- NgxMaterialTimepickerModule&#45;&gt;AppModule -->
<g id="edge27" class="edge">
<title>NgxMaterialTimepickerModule&#45;&gt;AppModule</title>
<path fill="none" stroke="black" d="M3486,-122.22C3486,-140.83 3486,-167 3486,-167 3486,-167 4711.24,-167 4711.24,-167"/>
<polygon fill="black" stroke="black" points="4711.24,-170.5 4721.24,-167 4711.24,-163.5 4711.24,-170.5"/>
</g>
<!-- MatIconModule -->
<g id="node29" class="node">
<title>MatIconModule</title>
<polygon fill="#8dd3c7" stroke="black" points="3370.47,-122 3367.47,-126 3346.47,-126 3343.47,-122 3263.53,-122 3263.53,-86 3370.47,-86 3370.47,-122"/>
<text text-anchor="middle" x="3317" y="-99.8" font-family="Times,serif" font-size="14.00">MatIconModule</text>
</g>
<!-- MatIconModule&#45;&gt;AppModule -->
<g id="edge28" class="edge">
<title>MatIconModule&#45;&gt;AppModule</title>
<path fill="none" stroke="black" d="M3317,-122.11C3317,-141.34 3317,-169 3317,-169 3317,-169 4711.28,-169 4711.28,-169"/>
<polygon fill="black" stroke="black" points="4711.28,-172.5 4721.28,-169 4711.28,-165.5 4711.28,-172.5"/>
</g>
<!-- MatTableModule -->
<g id="node30" class="node">
<title>MatTableModule</title>
<polygon fill="#8dd3c7" stroke="black" points="3245.97,-122 3242.97,-126 3221.97,-126 3218.97,-122 3132.03,-122 3132.03,-86 3245.97,-86 3245.97,-122"/>
<text text-anchor="middle" x="3189" y="-99.8" font-family="Times,serif" font-size="14.00">MatTableModule</text>
</g>
<!-- MatTableModule&#45;&gt;AppModule -->
<g id="edge29" class="edge">
<title>MatTableModule&#45;&gt;AppModule</title>
<path fill="none" stroke="black" d="M3189,-122.31C3189,-142.15 3189,-171 3189,-171 3189,-171 4711.3,-171 4711.3,-171"/>
<polygon fill="black" stroke="black" points="4711.3,-174.5 4721.3,-171 4711.3,-167.5 4711.3,-174.5"/>
</g>
<!-- MatBadgeModule -->
<g id="node31" class="node">
<title>MatBadgeModule</title>
<polygon fill="#8dd3c7" stroke="black" points="3113.87,-122 3110.87,-126 3089.87,-126 3086.87,-122 2996.13,-122 2996.13,-86 3113.87,-86 3113.87,-122"/>
<text text-anchor="middle" x="3055" y="-99.8" font-family="Times,serif" font-size="14.00">MatBadgeModule</text>
</g>
<!-- MatBadgeModule&#45;&gt;AppModule -->
<g id="edge30" class="edge">
<title>MatBadgeModule&#45;&gt;AppModule</title>
<path fill="none" stroke="black" d="M3055,-122.13C3055,-142.57 3055,-173 3055,-173 3055,-173 4711.2,-173 4711.2,-173"/>
<polygon fill="black" stroke="black" points="4711.2,-176.5 4721.2,-173 4711.2,-169.5 4711.2,-176.5"/>
</g>
<!-- MatCheckboxModule -->
<g id="node32" class="node">
<title>MatCheckboxModule</title>
<polygon fill="#8dd3c7" stroke="black" points="2978.37,-122 2975.37,-126 2954.37,-126 2951.37,-122 2839.63,-122 2839.63,-86 2978.37,-86 2978.37,-122"/>
<text text-anchor="middle" x="2909" y="-99.8" font-family="Times,serif" font-size="14.00">MatCheckboxModule</text>
</g>
<!-- MatCheckboxModule&#45;&gt;AppModule -->
<g id="edge31" class="edge">
<title>MatCheckboxModule&#45;&gt;AppModule</title>
<path fill="none" stroke="black" d="M2909,-122.28C2909,-143.32 2909,-175 2909,-175 2909,-175 4711.24,-175 4711.24,-175"/>
<polygon fill="black" stroke="black" points="4711.24,-178.5 4721.24,-175 4711.24,-171.5 4711.24,-178.5"/>
</g>
<!-- ServiceWorkerModule.register(args) -->
<g id="node33" class="node">
<title>ServiceWorkerModule.register(args)</title>
<polygon fill="#8dd3c7" stroke="black" points="2821.4,-122 2818.4,-126 2797.4,-126 2794.4,-122 2598.6,-122 2598.6,-86 2821.4,-86 2821.4,-122"/>
<text text-anchor="middle" x="2710" y="-99.8" font-family="Times,serif" font-size="14.00">ServiceWorkerModule.register(args)</text>
</g>
<!-- ServiceWorkerModule.register(args)&#45;&gt;AppModule -->
<g id="edge32" class="edge">
<title>ServiceWorkerModule.register(args)&#45;&gt;AppModule</title>
<path fill="none" stroke="black" d="M2710,-122.04C2710,-143.66 2710,-177 2710,-177 2710,-177 4711.06,-177 4711.06,-177"/>
<polygon fill="black" stroke="black" points="4711.06,-180.5 4721.06,-177 4711.06,-173.5 4711.06,-180.5"/>
</g>
<!-- { provide: DateAdapter, useClass: MomentDateAdapter, deps: [MAT_DATE_LOCALE] } -->
<g id="node35" class="node">
<title>{ provide: DateAdapter, useClass: MomentDateAdapter, deps: [MAT_DATE_LOCALE] }</title>
<ellipse fill="#fdb462" stroke="black" cx="2211" cy="-104" rx="363.64" ry="18"/>
<text text-anchor="middle" x="2211" y="-99.8" font-family="Times,serif" font-size="14.00">{ provide: DateAdapter, useClass: MomentDateAdapter, deps: [MAT_DATE_LOCALE] }</text>
</g>
<!-- { provide: DateAdapter, useClass: MomentDateAdapter, deps: [MAT_DATE_LOCALE] }&#45;&gt;AppModule -->
<g id="edge34" class="edge">
<title>{ provide: DateAdapter, useClass: MomentDateAdapter, deps: [MAT_DATE_LOCALE] }&#45;&gt;AppModule</title>
<path fill="none" stroke="black" d="M2211,-122.16C2211,-144.35 2211,-179 2211,-179 2211,-179 4711.1,-179 4711.1,-179"/>
<polygon fill="black" stroke="black" points="4711.1,-182.5 4721.1,-179 4711.1,-175.5 4711.1,-182.5"/>
</g>
<!-- { provide: MAT_DATE_FORMATS, useValue: MAT_MOMENT_DATE_FORMATS } -->
<g id="node36" class="node">
<title>{ provide: MAT_DATE_FORMATS, useValue: MAT_MOMENT_DATE_FORMATS }</title>
<ellipse fill="#fdb462" stroke="black" cx="1471" cy="-104" rx="358.47" ry="18"/>
<text text-anchor="middle" x="1471" y="-99.8" font-family="Times,serif" font-size="14.00">{ provide: MAT_DATE_FORMATS, useValue: MAT_MOMENT_DATE_FORMATS }</text>
</g>
<!-- { provide: MAT_DATE_FORMATS, useValue: MAT_MOMENT_DATE_FORMATS }&#45;&gt;AppModule -->
<g id="edge35" class="edge">
<title>{ provide: MAT_DATE_FORMATS, useValue: MAT_MOMENT_DATE_FORMATS }&#45;&gt;AppModule</title>
<path fill="none" stroke="black" d="M1471,-122.25C1471,-145.02 1471,-181 1471,-181 1471,-181 4711.08,-181 4711.08,-181"/>
<polygon fill="black" stroke="black" points="4711.08,-184.5 4721.08,-181 4711.08,-177.5 4711.08,-184.5"/>
</g>
<!-- { provide: MAT_DATE_LOCALE, useValue: &#39;sr&#45;sp&#39; } -->
<g id="node37" class="node">
<title>{ provide: MAT_DATE_LOCALE, useValue: &#39;sr&#45;sp&#39; }</title>
<ellipse fill="#fdb462" stroke="black" cx="869" cy="-104" rx="225.94" ry="18"/>
<text text-anchor="middle" x="869" y="-99.8" font-family="Times,serif" font-size="14.00">{ provide: MAT_DATE_LOCALE, useValue: &#39;sr&#45;sp&#39; }</text>
</g>
<!-- { provide: MAT_DATE_LOCALE, useValue: &#39;sr&#45;sp&#39; }&#45;&gt;AppModule -->
<g id="edge36" class="edge">
<title>{ provide: MAT_DATE_LOCALE, useValue: &#39;sr&#45;sp&#39; }&#45;&gt;AppModule</title>
<path fill="none" stroke="black" d="M869,-122.32C869,-145.66 869,-183 869,-183 869,-183 4711.25,-183 4711.25,-183"/>
<polygon fill="black" stroke="black" points="4711.25,-186.5 4721.25,-183 4711.25,-179.5 4711.25,-186.5"/>
</g>
<!-- { provide: HTTP_INTERCEPTORS, useClass: TokenInterceptor, multi: &#160;} -->
<g id="node38" class="node">
<title>{ provide: HTTP_INTERCEPTORS, useClass: TokenInterceptor, multi: &#160;}</title>
<ellipse fill="#fdb462" stroke="black" cx="325" cy="-104" rx="300.65" ry="18"/>
<text text-anchor="middle" x="325" y="-99.8" font-family="Times,serif" font-size="14.00">{ provide: HTTP_INTERCEPTORS, useClass: TokenInterceptor, multi: &#160;}</text>
</g>
<!-- { provide: HTTP_INTERCEPTORS, useClass: TokenInterceptor, multi: &#160;}&#45;&gt;AppModule -->
<g id="edge37" class="edge">
<title>{ provide: HTTP_INTERCEPTORS, useClass: TokenInterceptor, multi: &#160;}&#45;&gt;AppModule</title>
<path fill="none" stroke="black" d="M325,-122.38C325,-146.28 325,-185 325,-185 325,-185 4711.2,-185 4711.2,-185"/>
<polygon fill="black" stroke="black" points="4711.2,-188.5 4721.2,-185 4711.2,-181.5 4711.2,-188.5"/>
</g>
</g>
</svg>
